<svg width="17" height="17" viewBox="0 0 17 17" fill="none" xmlns="http://www.w3.org/2000/svg">
<path d="M14.1667 0H3.96667C3.27364 0 2.69762 0.500933 2.57607 1.1594C1.91761 1.28095 1.41667 1.85697 1.41667 2.55V15.5833C1.41667 16.3645 2.05219 17 2.83334 17H13.0333C13.7264 17 14.3024 16.4991 14.4239 15.8406C15.0824 15.7191 15.5833 15.143 15.5833 14.45V1.41667C15.5833 0.635517 14.9478 0 14.1667 0ZM13.8833 15.5833C13.8833 16.052 13.502 16.4333 13.0333 16.4333H2.83334C2.36471 16.4333 1.98334 16.052 1.98334 15.5833V2.55C1.98334 2.08137 2.36471 1.7 2.83334 1.7H11.3333V3.96667C11.3333 4.12335 11.46 4.25 11.6167 4.25H13.8833V15.5833ZM11.9 3.68333V2.10063L13.4827 3.68333H11.9ZM15.0167 14.45C15.0167 14.8189 14.779 15.1306 14.45 15.2479V3.96667C14.45 3.88818 14.418 3.81735 14.3667 3.76607L11.8176 1.21692C11.766 1.16535 11.6952 1.13333 11.6167 1.13333H3.16881C3.28611 0.804383 3.59777 0.566667 3.96667 0.566667H14.1667C14.6353 0.566667 15.0167 0.948033 15.0167 1.41667V14.45Z" fill="black"/>
<path d="M7.93333 2.54999C7.15218 2.54999 6.51666 3.1855 6.51666 3.96665C6.51666 4.7478 7.15218 5.38332 7.93333 5.38332C8.71448 5.38332 9.35 4.7478 9.35 3.96665C9.35 3.1855 8.71448 2.54999 7.93333 2.54999ZM7.93333 4.81665C7.4647 4.81665 7.08333 4.43529 7.08333 3.96665C7.08333 3.49802 7.4647 3.11665 7.93333 3.11665C8.40196 3.11665 8.78333 3.49802 8.78333 3.96665C8.78333 4.43529 8.40196 4.81665 7.93333 4.81665Z" fill="black"/>
<path d="M5.66666 6.23332H2.83333V6.79999H5.66666V6.23332Z" fill="black"/>
<path d="M7.36666 6.23332H6.51666V6.79999H7.36666V6.23332Z" fill="black"/>
<path d="M11.3333 6.23332H8.5V6.79999H11.3333V6.23332Z" fill="black"/>
<path d="M13.0333 6.23332H12.1833V6.79999H13.0333V6.23332Z" fill="black"/>
<path d="M5.66666 7.36668H2.83333V7.93335H5.66666V7.36668Z" fill="black"/>
<path d="M7.36666 7.36668H6.51666V7.93335H7.36666V7.36668Z" fill="black"/>
<path d="M11.3333 7.36668H8.5V7.93335H11.3333V7.36668Z" fill="black"/>
<path d="M13.0333 7.36668H12.1833V7.93335H13.0333V7.36668Z" fill="black"/>
<path d="M5.66666 8.5H2.83333V9.06667H5.66666V8.5Z" fill="black"/>
<path d="M7.36666 8.5H6.51666V9.06667H7.36666V8.5Z" fill="black"/>
<path d="M11.3333 8.5H8.5V9.06667H11.3333V8.5Z" fill="black"/>
<path d="M13.0333 8.5H12.1833V9.06667H13.0333V8.5Z" fill="black"/>
<path d="M5.66666 9.63332H2.83333V10.2H5.66666V9.63332Z" fill="black"/>
<path d="M7.36666 9.63332H6.51666V10.2H7.36666V9.63332Z" fill="black"/>
<path d="M11.3333 9.63332H8.5V10.2H11.3333V9.63332Z" fill="black"/>
<path d="M13.0333 9.63332H12.1833V10.2H13.0333V9.63332Z" fill="black"/>
<path d="M5.66666 11.3333H2.83333V11.9H5.66666V11.3333Z" fill="black"/>
<path d="M7.36666 11.3333H6.51666V11.9H7.36666V11.3333Z" fill="black"/>
<path d="M11.3333 11.3333H8.5V11.9H11.3333V11.3333Z" fill="black"/>
<path d="M13.0333 11.3333H12.1833V11.9H13.0333V11.3333Z" fill="black"/>
<path d="M5.66666 12.4667H2.83333V13.0333H5.66666V12.4667Z" fill="black"/>
<path d="M7.36666 12.4667H6.51666V13.0333H7.36666V12.4667Z" fill="black"/>
<path d="M11.3333 12.4667H8.5V13.0333H11.3333V12.4667Z" fill="black"/>
<path d="M13.0333 12.4667H12.1833V13.0333H13.0333V12.4667Z" fill="black"/>
<path d="M5.66666 13.6H2.83333V14.1667H5.66666V13.6Z" fill="black"/>
<path d="M7.36666 13.6H6.51666V14.1667H7.36666V13.6Z" fill="black"/>
<path d="M11.3333 13.6H8.5V14.1667H11.3333V13.6Z" fill="black"/>
<path d="M13.0333 13.6H12.1833V14.1667H13.0333V13.6Z" fill="black"/>
<path d="M5.66666 14.7333H2.83333V15.3H5.66666V14.7333Z" fill="black"/>
<path d="M7.36666 14.7333H6.51666V15.3H7.36666V14.7333Z" fill="black"/>
<path d="M11.3333 14.7333H8.5V15.3H11.3333V14.7333Z" fill="black"/>
<path d="M13.0333 14.7333H12.1833V15.3H13.0333V14.7333Z" fill="black"/>
</svg>
