<svg width="16" height="18" viewBox="0 0 16 18" fill="none" xmlns="http://www.w3.org/2000/svg">
<g clip-path="url(#clip0)">
<path d="M15.7555 7.05026C15.5892 6.83582 15.3552 6.71302 15.1135 6.71302H14.75V6.39755C14.75 5.83084 14.292 5.36945 13.7292 5.36945H13.25V4.78715C13.25 4.51306 13.1412 4.24569 12.952 4.05329C12.5755 3.67092 11.9248 3.67092 11.5483 4.05329C11.3588 4.24596 11.25 4.51333 11.25 4.78742V7.51943H4.75V4.78742C4.75 4.51333 4.6415 4.24596 4.452 4.05356C4.0755 3.67118 3.42475 3.67118 3.04825 4.05356C2.85875 4.24596 2.75 4.51333 2.75 4.78742V5.36972H2.2125C1.95975 5.36972 1.72075 5.4678 1.53925 5.64596C1.3555 5.82734 1.25 6.08047 1.25 6.34005V6.71302H0.89C0.647 6.71302 0.412 6.83636 0.24525 7.0516C0.08725 7.25582 0 7.52427 0 7.80722V9.38081C0 9.66377 0.08725 9.93221 0.2455 10.1364C0.41225 10.3517 0.64725 10.475 0.89 10.475H1.25V10.848C1.25 11.1076 1.3555 11.3607 1.53975 11.5426C1.72075 11.7205 1.95975 11.8186 2.2125 11.8186H2.75V12.4009C2.75 12.675 2.85875 12.9423 3.048 13.1345C3.23625 13.3255 3.4855 13.4309 3.75 13.4309C4.0145 13.4309 4.26375 13.3255 4.452 13.1345C4.6415 12.9421 4.75 12.6747 4.75 12.4009V9.66887H11.25V12.4009C11.25 12.675 11.3588 12.9423 11.548 13.1345C11.7363 13.3255 11.9855 13.4309 12.25 13.4309C12.5145 13.4309 12.7637 13.3255 12.952 13.1345C13.1412 12.9421 13.25 12.6747 13.25 12.4009V11.8186H13.7292C14.292 11.8186 14.75 11.3575 14.75 10.7905V10.475H15.1135C15.3552 10.475 15.5892 10.3519 15.7557 10.1378C15.9132 9.93436 16.0002 9.66726 16.0002 9.38538V7.80292C16 7.52104 15.9132 7.25367 15.7555 7.05026ZM0.89 9.93758C0.79475 9.93758 0.70225 9.88599 0.62975 9.79248C0.54725 9.68634 0.5 9.53613 0.5 9.38081V7.80722C0.5 7.65191 0.54725 7.50196 0.62975 7.39555C0.70225 7.30204 0.79475 7.25045 0.89 7.25045H1.25V9.93758H0.89ZM2.2125 11.2812C2.08675 11.2812 1.9645 11.232 1.87775 11.1465C1.79525 11.0651 1.75 10.9592 1.75 10.848V10.2063V6.98174V6.34005C1.75 6.2288 1.79525 6.12266 1.87725 6.04178C1.96475 5.95606 2.08675 5.90688 2.2125 5.90688H2.75V11.2812H2.2125ZM4.25 12.4009C4.25 12.5296 4.19975 12.6513 4.10875 12.7438C3.92125 12.934 3.579 12.934 3.3915 12.7438C3.30025 12.6513 3.25 12.5293 3.25 12.4009V11.5499V5.63817V4.78715C3.25 4.65844 3.30025 4.53671 3.39125 4.44427C3.485 4.34915 3.61575 4.2946 3.75 4.2946C3.88425 4.2946 4.015 4.34915 4.10875 4.44427C4.19975 4.53671 4.25 4.65871 4.25 4.78742V7.78814V9.40043V12.4009ZM4.75 9.13144V8.05659H11.25V9.13144H4.75ZM12.75 12.4009C12.75 12.5296 12.6998 12.6513 12.6088 12.7438C12.4213 12.934 12.079 12.934 11.8915 12.7438C11.8003 12.6513 11.75 12.5293 11.75 12.4009V9.40016V7.78788V4.78742C11.75 4.65871 11.8002 4.53698 11.8912 4.44454C11.985 4.34942 12.1157 4.29487 12.25 4.29487C12.3843 4.29487 12.515 4.34942 12.6088 4.44454C12.6998 4.53671 12.75 4.65871 12.75 4.78742V5.63844V11.5501V12.4009ZM14.25 10.7905C14.25 11.0611 14.0165 11.2812 13.7292 11.2812H13.25V5.90688H13.7292C14.0162 5.90688 14.25 6.12696 14.25 6.39755V6.98174V10.2063V10.7905ZM15.5 9.38511C15.5 9.53935 15.453 9.68795 15.3715 9.79355C15.2995 9.88653 15.2077 9.93758 15.1135 9.93758H14.75V7.25045H15.1135C15.2077 7.25045 15.2995 7.3015 15.3715 7.39448C15.4533 7.49982 15.5 7.64868 15.5 7.80292V9.38511Z" fill="#6C4DCC"/>
</g>
<defs>
<clipPath id="clip0">
<rect width="16" height="17.1977" fill="white"/>
</clipPath>
</defs>
</svg>
