<svg width="200" height="86" viewBox="0 0 200 86" fill="none" xmlns="http://www.w3.org/2000/svg">
<g clip-path="url(#clip0)">
<rect width="200" height="86" fill="white"/>
<g opacity="0.8">
<rect x="132.007" y="-28.3051" width="107.32" height="124.355" transform="rotate(19.7726 132.007 -28.3051)" fill="#CEE2F5"/>
</g>
<g clip-path="url(#clip1)">
<path d="M137.473 32.294C137.167 32.294 136.919 32.5426 136.919 32.8481C136.919 33.1537 137.167 33.4023 137.473 33.4023C137.778 33.4023 138.027 33.1537 138.027 32.8481C138.027 32.5425 137.778 32.294 137.473 32.294Z" fill="#69728C"/>
<path d="M137.627 51.6805C137.321 51.4933 137.015 51.3723 136.8 51.3006V50.3328C136.8 50.1221 136.629 49.9514 136.418 49.9514C136.208 49.9514 136.037 50.1221 136.037 50.3328V51.5875C136.037 51.7663 136.162 51.9213 136.337 51.96C136.341 51.9611 136.8 52.065 137.244 52.341C137.643 52.5888 137.896 52.8892 138.001 53.2372H135.591C135.26 53.2372 134.962 53.0272 134.852 52.7147L132.629 46.4307C132.559 46.2327 132.342 46.1287 132.144 46.1977C131.946 46.2667 131.84 46.483 131.909 46.6816C132.069 47.1493 132.15 47.6717 132.15 48.234C132.15 49.3476 131.601 50.1297 130.471 50.6251C129.497 51.0519 128.37 51.1206 127.93 51.1303C127.722 51.135 127.555 51.3069 127.558 51.5158C127.56 51.7248 127.73 51.893 127.939 51.893H130.94C131.537 51.893 131.99 52.0525 132.287 52.3671C132.543 52.6378 132.646 52.9824 132.687 53.2372H124.525C123.898 53.2372 123.33 52.9874 122.837 52.4947C122.772 52.4299 122.686 52.3905 122.595 52.384C120.113 52.2054 117.101 49.9358 116.407 46.0814C116.37 45.8741 116.172 45.7365 115.964 45.7735C115.757 45.8109 115.619 46.0092 115.656 46.2164C115.998 48.1161 116.889 49.8034 118.233 51.0961C119.455 52.2709 120.929 52.9905 122.4 53.133C123.012 53.7008 123.744 54 124.525 54H133.094C133.294 54 133.461 53.8443 133.474 53.644C133.477 53.6011 133.536 52.5857 132.848 51.8504C132.442 51.4159 131.874 51.1761 131.158 51.1362C132.008 50.6694 132.56 50.0041 132.79 49.1743L134.133 52.9691C134.351 53.5857 134.937 53.9999 135.591 53.9999H138.437C138.647 53.9999 138.818 53.8292 138.818 53.6186C138.818 52.8276 138.406 52.1574 137.627 51.6805Z" fill="#69728C"/>
<path d="M116.251 44.6153C116.14 41.6318 117.436 39.9128 118.543 38.9962C119.953 37.8286 121.482 37.5317 121.546 37.5197C121.786 37.4748 122.016 37.6329 122.06 37.8711C122.105 38.1098 121.947 38.3405 121.705 38.3859C121.648 38.3974 120.281 38.6771 119.055 39.7165C117.445 41.0807 116.831 43.0759 117.229 45.6465C117.568 47.8371 118.765 49.3879 120.787 50.2559C121.005 50.3492 121.264 50.4955 121.478 50.3149C121.583 50.2255 121.632 50.0858 121.606 49.95C120.875 46.2335 122.95 43.5308 125.188 42.5924C126.096 42.2115 126.911 41.7724 127.61 41.2873C127.783 41.1672 127.826 40.9296 127.706 40.7565C127.585 40.5835 127.348 40.5406 127.175 40.6607C126.52 41.1154 125.752 41.5286 124.893 41.8889C121.588 43.2747 120.463 46.6149 120.753 49.3993C119.191 48.6187 118.26 47.3186 117.983 45.5297C117.628 43.2392 118.155 41.4791 119.548 40.2982C120.614 39.3946 121.842 39.1363 121.85 39.1348C122.502 39.0124 122.932 38.3824 122.81 37.7303C122.688 37.079 122.058 36.6483 121.406 36.7698C121.334 36.7833 119.617 37.1165 118.057 38.4086C116.818 39.4349 115.367 41.3495 115.489 44.6436C115.497 44.8541 115.675 45.0169 115.884 45.0106C116.094 45.0028 116.259 44.8258 116.251 44.6153Z" fill="#69728C"/>
<path d="M140.515 33.7901C140.513 33.7638 140.513 33.7372 140.509 33.711C140.494 33.5932 140.446 33.4606 140.356 33.2927C140.354 33.2883 140.351 33.2841 140.349 33.2798C140.151 32.9108 138.871 31.2488 138.795 31.1403C138.476 30.6848 137.43 30.4739 136.753 30.3829V28.3812C136.753 28.1473 136.534 27.9645 136.304 28.0058C136.201 28.0243 133.844 28.4734 133.065 30.7206C132.582 30.948 131.308 31.7157 130.85 33.6303C130.777 33.9326 130.718 34.2647 130.656 34.6162C130.385 36.1372 130.048 38.0301 128.307 39.7312C128.157 39.8784 128.154 40.1199 128.301 40.2705C128.448 40.421 128.69 40.4239 128.841 40.2766C129.538 39.5952 130.03 38.8819 130.389 38.1758C132.637 39.727 134.892 40.0339 136.321 40.0339C136.428 40.0339 136.53 40.0321 136.628 40.0291C136.717 40.1988 136.802 40.3467 136.869 40.4623L136.913 40.5387C136.984 40.6625 138.618 43.6078 136.123 46.6679C136.067 46.7359 136.037 46.8211 136.037 46.9088V48.8072C136.037 49.0179 136.208 49.1886 136.418 49.1886C136.629 49.1886 136.8 49.0179 136.8 48.8072V47.0428C137.837 45.7273 138.329 44.2787 138.262 42.7354C138.2 41.3199 137.679 40.3419 137.575 40.1602L137.53 40.0809C137.308 39.6979 136.754 38.7375 136.879 38.1042C136.879 38.1015 136.88 38.0987 136.881 38.096C136.893 38.0367 136.911 37.9802 136.936 37.9275C137.059 37.6693 137.368 37.4997 137.854 37.4236C138.964 37.2494 139.774 36.6118 140.195 35.5797C140.364 35.165 140.546 34.1578 140.515 33.7901ZM130.708 37.4685C130.838 37.1399 130.944 36.8158 131.032 36.5003C131.776 37.1671 133.373 38.2291 136.102 38.3816C136.114 38.6807 136.189 38.9849 136.29 39.2711C134.941 39.2669 132.815 38.9659 130.708 37.4685ZM137.735 36.67C136.986 36.7876 136.486 37.0999 136.248 37.5987C136.243 37.6072 136.24 37.6159 136.236 37.6244C134.385 37.5355 133.118 36.9921 132.371 36.5396C131.771 36.1769 131.405 35.8161 131.24 35.6338C131.304 35.3239 131.357 35.0275 131.407 34.7499C131.467 34.4097 131.525 34.0883 131.592 33.8078C132.048 31.8998 133.441 31.3845 133.498 31.3641C133.615 31.3242 133.705 31.2303 133.74 31.1122C134.158 29.7096 135.336 29.1125 135.99 28.883V30.7224C135.99 30.9184 136.138 31.0825 136.333 31.1019C137.164 31.1849 138.04 31.4121 138.17 31.5777C138.258 31.7029 138.402 31.8876 138.585 32.1215C138.816 32.4172 139.262 32.9872 139.532 33.3974C139.457 33.5119 139.414 33.6475 139.414 33.7901C139.414 34.0341 139.533 34.2484 139.718 34.3782C139.605 35.3092 139.166 36.4456 137.735 36.67Z" fill="#69728C"/>
</g>
<path d="M184.761 36.9417C185.096 36.9417 185.367 36.6705 185.367 36.3359C185.367 36.0013 185.096 35.73 184.761 35.73C184.427 35.73 184.155 36.0013 184.155 36.3359C184.155 36.6705 184.427 36.9417 184.761 36.9417Z" fill="#69728C"/>
<path d="M189.191 36.1339C188.255 36.1339 187.452 36.1998 186.677 35.4241L185.673 34.4204C185.218 33.9659 184.602 33.7106 183.959 33.7106H181.141H181.124C180.48 33.7106 179.863 33.9658 179.407 34.4203L179.392 34.4351L177.501 36.3259C177.107 36.7201 176.886 37.2548 176.886 37.8123V38.4469C176.886 39.5969 177.798 40.7831 178.936 40.9527C179.062 40.9715 179.186 40.9806 179.309 40.9806V41.1419C177.318 42.2892 173.234 44.6026 172.425 45.4053C171.744 46.0861 171.231 47.1626 171.231 48.2505C171.231 48.7361 171.295 49.23 171.577 49.8722L169.212 49.8661C168.543 49.8661 168 50.4086 168 51.0777C168 51.7469 168.543 52.2894 169.212 52.2894H179.297C179.897 52.2894 180.313 51.645 180.023 51.1197C179.764 50.6521 179.356 50.2791 178.863 50.0651C179.14 49.514 179.302 49.0579 179.997 49.0579H180.924V51.4816C180.924 51.9277 181.286 52.2894 181.732 52.2894H184.737C185.357 52.2894 185.757 51.6138 185.444 51.0789C185.072 50.4418 184.415 49.9918 183.647 49.8962L183.826 48.4591C184.797 47.863 185.513 46.8727 185.71 45.7263C185.985 44.1221 185.302 42.6733 184.155 41.8067V40.1727H186.579C187.467 40.1727 188.568 39.5493 189.026 38.7873C189.218 38.4663 190.002 37.3023 190 36.9388C189.998 36.5192 189.662 36.1339 189.191 36.1339ZM179.305 40.1642C178.318 40.1642 177.693 39.3276 177.693 38.4674V37.8125C177.693 37.4767 177.821 37.1479 178.072 36.8971L179.963 35.0064C180.217 34.7526 180.558 34.5838 180.924 34.5388V38.5572C180.924 39.4213 180.229 40.1642 179.305 40.1642ZM169.212 51.4816C168.989 51.4816 168.808 51.3004 168.808 51.0777C168.808 50.855 168.989 50.6738 169.209 50.6738C172.135 50.6814 171.409 50.6795 172.065 50.6812C172.364 51.0741 172.413 51.1405 172.871 51.4816H169.212ZM188.333 38.3718C188.005 38.918 187.216 39.365 186.579 39.365H184.519C183.993 39.365 183.549 39.0264 183.381 38.5572H182.54C182.643 39.0645 182.941 39.4977 183.348 39.7894V42.2087C184.511 43.0883 185.171 44.0901 184.914 45.5897C184.709 46.7804 183.989 47.4115 183.073 47.9737C182.879 49.5262 182.82 49.9957 182.745 50.598C183.56 50.6994 184.293 50.701 184.737 51.4817C183.048 51.4817 183.417 51.4817 181.732 51.4817C181.732 49.5451 181.732 49.389 181.732 47.4428H180.924V48.2502C180.71 48.2502 180.54 48.2502 179.997 48.2502C179.748 48.2502 179.516 48.3163 179.295 48.4095C179.335 47.3118 178.938 46.2068 178.126 45.3945L177.554 45.9657C178.752 47.1639 178.679 48.9167 177.996 49.986L177.754 50.4648C178.382 50.7373 178.985 50.9074 179.297 51.4817H175.268C173.478 51.48 172.064 50.0385 172.043 48.2941C172.026 47.3277 172.464 46.328 173.352 45.667C174.241 45.0047 179.156 42.1622 180.117 41.6087C180.117 41.389 180.117 41.0411 180.116 40.8323C181.055 40.4986 181.732 39.611 181.732 38.5572V34.5184H183.96C184.388 34.5184 184.799 34.6886 185.102 34.9915L186.105 35.9952C186.681 36.5705 187.437 36.8913 188.244 36.9274C188.33 37.2211 188.528 37.4634 188.792 37.6069L188.333 38.3718Z" fill="#69728C"/>
<path d="M158.5 25.0133L158.5 24.5133L158.5 25.0133ZM171 30.5133C171.276 30.5133 171.5 30.2894 171.5 30.0133L171.5 25.5133C171.5 25.2371 171.276 25.0133 171 25.0133C170.724 25.0133 170.5 25.2371 170.5 25.5133L170.5 29.5133L166.5 29.5133C166.224 29.5133 166 29.7372 166 30.0133C166 30.2894 166.224 30.5133 166.5 30.5133L171 30.5133ZM145 30.0133C145.32 30.3974 145.32 30.3975 145.32 30.3975C145.32 30.3975 145.32 30.3976 145.32 30.3976C145.32 30.3975 145.32 30.3974 145.32 30.3973C145.321 30.3969 145.321 30.3963 145.323 30.3953C145.325 30.3934 145.329 30.3904 145.334 30.3862C145.344 30.3778 145.36 30.3648 145.382 30.3476C145.425 30.3131 145.49 30.2616 145.576 30.1956C145.749 30.0634 146.006 29.873 146.339 29.6436C147.004 29.1848 147.97 28.5716 149.166 27.9582C151.563 26.7289 154.857 25.5133 158.5 25.5133L158.5 24.5133C154.643 24.5133 151.187 25.7976 148.709 27.0684C147.468 27.705 146.465 28.3418 145.771 28.8204C145.424 29.0599 145.153 29.2601 144.969 29.4013C144.876 29.472 144.805 29.5279 144.757 29.5667C144.733 29.5861 144.714 29.6012 144.701 29.6117C144.695 29.617 144.69 29.6211 144.686 29.624C144.684 29.6255 144.683 29.6266 144.682 29.6275C144.681 29.6279 144.681 29.6283 144.681 29.6286C144.68 29.6287 144.68 29.6289 144.68 29.6289C144.68 29.6291 144.68 29.6292 145 30.0133ZM158.5 25.5133C162.138 25.5133 165.177 26.7263 167.314 27.9474C168.382 28.5574 169.22 29.167 169.789 29.6225C170.074 29.8501 170.291 30.0389 170.435 30.1695C170.508 30.2348 170.562 30.2855 170.597 30.3192C170.615 30.3361 170.628 30.3487 170.636 30.3567C170.64 30.3607 170.643 30.3636 170.645 30.3653C170.646 30.3662 170.646 30.3667 170.647 30.367C170.647 30.3671 170.647 30.3672 170.647 30.3671C170.647 30.3671 170.647 30.367 170.647 30.367C170.647 30.367 170.646 30.3668 171 30.0133C171.354 29.6597 171.353 29.6596 171.353 29.6594C171.353 29.6593 171.353 29.6591 171.353 29.659C171.353 29.6587 171.352 29.6583 171.352 29.6578C171.351 29.6568 171.349 29.6556 171.348 29.654C171.345 29.6509 171.34 29.6466 171.335 29.6412C171.324 29.6303 171.308 29.6148 171.287 29.5951C171.245 29.5555 171.185 29.4988 171.106 29.4274C170.948 29.2846 170.715 29.0827 170.414 28.8416C169.811 28.3596 168.931 27.7192 167.811 27.0792C165.573 25.8003 162.362 24.5133 158.5 24.5133L158.5 25.5133Z" fill="#6C4DCC"/>
<path d="M158.023 62.9331L158.059 63.4317L158.023 62.9331ZM145.15 58.3715C144.875 58.3919 144.668 58.6317 144.689 58.9071L145.021 63.3948C145.041 63.6702 145.281 63.8769 145.557 63.8565C145.832 63.8361 146.039 63.5963 146.018 63.3209L145.723 59.3318L149.712 59.0363C149.987 59.0159 150.194 58.7762 150.174 58.5008C150.153 58.2254 149.913 58.0187 149.638 58.0391L145.15 58.3715ZM171.116 56.9495C170.769 56.5901 170.769 56.59 170.769 56.5899C170.769 56.5899 170.769 56.5899 170.769 56.5899C170.769 56.5899 170.769 56.59 170.769 56.5902C170.768 56.5906 170.767 56.5913 170.766 56.5923C170.764 56.5944 170.761 56.5977 170.756 56.6023C170.746 56.6114 170.731 56.6255 170.711 56.6443C170.671 56.6818 170.609 56.738 170.528 56.8103C170.366 56.9548 170.123 57.1637 169.809 57.417C169.179 57.9237 168.261 58.6066 167.114 59.3067C164.814 60.7096 161.618 62.1654 157.986 62.4344L158.059 63.4317C161.906 63.1468 165.257 61.6107 167.635 60.1603C168.826 59.4337 169.779 58.7246 170.436 58.196C170.764 57.9316 171.019 57.712 171.193 57.5574C171.28 57.4802 171.346 57.4191 171.392 57.3769C171.414 57.3557 171.432 57.3393 171.444 57.3279C171.45 57.3221 171.455 57.3177 171.458 57.3145C171.46 57.3129 171.461 57.3117 171.462 57.3107C171.462 57.3102 171.463 57.3099 171.463 57.3096C171.463 57.3094 171.464 57.3092 171.464 57.3092C171.464 57.309 171.464 57.3089 171.116 56.9495ZM157.986 62.4344C154.357 62.7032 151.237 61.718 149.015 60.6581C147.906 60.1287 147.025 59.5826 146.424 59.1704C146.123 58.9644 145.893 58.7922 145.739 58.6726C145.662 58.6129 145.604 58.5663 145.566 58.5353C145.548 58.5198 145.534 58.5082 145.525 58.5008C145.52 58.4971 145.517 58.4944 145.515 58.4928C145.515 58.4921 145.514 58.4915 145.514 58.4913C145.513 58.4912 145.513 58.4911 145.513 58.4912C145.513 58.4912 145.514 58.4912 145.514 58.4912C145.514 58.4913 145.514 58.4914 145.187 58.8701C144.861 59.2488 144.861 59.249 144.861 59.2491C144.861 59.2492 144.861 59.2494 144.862 59.2495C144.862 59.2498 144.862 59.2502 144.863 59.2506C144.864 59.2515 144.865 59.2527 144.867 59.2541C144.87 59.257 144.875 59.2609 144.881 59.2659C144.893 59.276 144.91 59.2902 144.932 59.3084C144.976 59.3448 145.041 59.3968 145.125 59.4622C145.293 59.593 145.54 59.7771 145.858 59.9953C146.495 60.4315 147.42 61.0051 148.585 61.5606C150.911 62.6707 154.208 63.717 158.059 63.4317L157.986 62.4344Z" fill="#6C4DCC"/>
</g>
<defs>
<clipPath id="clip0">
<rect width="200" height="86" fill="white"/>
</clipPath>
<clipPath id="clip1">
<rect width="26" height="26" fill="white" transform="translate(115 28)"/>
</clipPath>
</defs>
</svg>
