<svg width="200" height="86" viewBox="0 0 200 86" fill="none" xmlns="http://www.w3.org/2000/svg">
<g clip-path="url(#clip0)">
<rect width="200" height="86" fill="white"/>
<g opacity="0.8">
<rect x="132.007" y="-28.3051" width="107.32" height="124.355" transform="rotate(19.7726 132.007 -28.3051)" fill="#CEF5DB"/>
<g clip-path="url(#clip1)">
<path d="M184.293 49.8815C184.55 49.8815 184.758 49.6734 184.758 49.4167C184.758 49.16 184.55 48.9519 184.293 48.9519C184.036 48.9519 183.828 49.16 183.828 49.4167C183.828 49.6734 184.036 49.8815 184.293 49.8815Z" fill="#69728C"/>
<path d="M187.691 49.2618C186.974 49.2618 186.357 49.3123 185.762 48.7172L184.992 47.9471C184.643 47.5984 184.171 47.4025 183.678 47.4025H181.515H181.502C181.008 47.4025 180.535 47.5983 180.185 47.9471L180.173 47.9584L178.723 49.4091C178.42 49.7115 178.25 50.1217 178.25 50.5495V51.0364C178.25 51.9187 178.95 52.8288 179.823 52.9589C179.92 52.9733 180.016 52.9803 180.109 52.9803V53.1041C178.582 53.9843 175.448 55.7592 174.828 56.3751C174.306 56.8975 173.912 57.7233 173.912 58.558C173.912 58.9306 173.961 59.3096 174.177 59.8022L172.363 59.7975C171.849 59.7975 171.433 60.2138 171.433 60.7272C171.433 61.2405 171.849 61.6568 172.363 61.6568H180.1C180.561 61.6568 180.88 61.1624 180.657 60.7594C180.459 60.4006 180.146 60.1145 179.767 59.9502C179.98 59.5274 180.104 59.1775 180.638 59.1775H181.349V61.037C181.349 61.3793 181.626 61.6568 181.969 61.6568H184.274C184.75 61.6568 185.057 61.1384 184.817 60.7281C184.531 60.2393 184.027 59.894 183.438 59.8207L183.576 58.7181C184.321 58.2608 184.87 57.5009 185.021 56.6214C185.232 55.3906 184.708 54.279 183.828 53.6141V52.3605H185.687C186.369 52.3605 187.214 51.8822 187.564 51.2976C187.712 51.0513 188.314 50.1582 188.312 49.8793C188.31 49.5574 188.053 49.2618 187.691 49.2618ZM180.107 52.3539C179.349 52.3539 178.87 51.7121 178.87 51.0521V50.5496C178.87 50.292 178.968 50.0397 179.161 49.8473L180.612 48.3967C180.806 48.202 181.068 48.0725 181.349 48.0379V51.121C181.349 51.784 180.815 52.3539 180.107 52.3539ZM172.363 61.037C172.192 61.037 172.053 60.898 172.053 60.7272C172.053 60.5563 172.192 60.4173 172.361 60.4173C174.605 60.4231 174.049 60.4216 174.552 60.4229C174.781 60.7244 174.818 60.7753 175.17 61.037H172.363ZM187.033 50.9787C186.782 51.3978 186.176 51.7408 185.687 51.7408H184.107C183.703 51.7408 183.362 51.481 183.234 51.121H182.588C182.668 51.5102 182.897 51.8426 183.208 52.0664V53.9226C184.101 54.5974 184.607 55.3661 184.41 56.5165C184.253 57.4301 183.7 57.9144 182.998 58.3457C182.849 59.5368 182.804 59.897 182.746 60.3591C183.371 60.4369 183.934 60.4381 184.274 61.0371C182.979 61.0371 183.262 61.0371 181.969 61.0371C181.969 59.5513 181.969 59.4315 181.969 57.9383H181.349V58.5578C181.185 58.5578 181.054 58.5578 180.638 58.5578C180.447 58.5578 180.268 58.6085 180.099 58.68C180.129 57.8378 179.825 56.99 179.202 56.3668L178.763 56.805C179.682 57.7244 179.626 59.0692 179.102 59.8896L178.917 60.2569C179.399 60.4659 179.861 60.5965 180.1 61.0371H177.009C175.636 61.0358 174.551 59.9298 174.535 58.5915C174.522 57.85 174.858 57.083 175.539 56.5758C176.221 56.0678 179.992 53.8869 180.729 53.4622C180.729 53.2937 180.73 53.0267 180.729 52.8666C181.449 52.6105 181.969 51.9295 181.969 51.121V48.0223H183.678C184.007 48.0223 184.322 48.1529 184.554 48.3853L185.324 49.1554C185.765 49.5967 186.346 49.8428 186.965 49.8706C187.031 50.0959 187.183 50.2818 187.385 50.3919L187.033 50.9787Z" fill="#69728C"/>
</g>
<rect x="170.245" y="46.5901" width="19.2549" height="15.8791" stroke="#6C4DCC"/>
<g clip-path="url(#clip2)">
<path d="M147.399 37.6521H133.935C132.824 37.7088 131.968 38.651 132.017 39.7618V57.0615C132.017 57.0678 132.02 57.0731 132.021 57.0793C132.022 57.127 132.032 57.1741 132.049 57.2185L132.051 57.2274L132.052 57.2298L133.051 59.5245C133.173 59.8176 133.457 60.0103 133.775 60.0151H134.127V61.7028C134.128 61.8469 134.155 61.9897 134.205 62.1248H129.063V54.5298C129.063 53.831 128.496 53.2647 127.798 53.264V46.0617C129.566 45.8389 130.856 44.2799 130.745 42.5012C130.633 40.7225 129.158 39.3371 127.376 39.3371C125.593 39.3371 124.118 40.7225 124.007 42.5012C123.895 44.2799 125.185 45.8389 126.954 46.0617V53.264C126.255 53.2647 125.689 53.831 125.688 54.5298V62.1248H124.422C124.189 62.1248 124 62.3137 124 62.5467C124 62.7797 124.189 62.9686 124.422 62.9686H148.895C149.128 62.9686 149.317 62.7797 149.317 62.5467C149.317 62.3137 149.128 62.1248 148.895 62.1248H147.129C147.179 61.9896 147.205 61.8469 147.207 61.7028V60.0151H147.559C147.876 60.0102 148.16 59.8178 148.283 59.525L149.282 57.2298L149.282 57.2276C149.284 57.2246 149.284 57.2213 149.285 57.2182C149.302 57.1736 149.312 57.1264 149.313 57.0786C149.313 57.0726 149.317 57.0675 149.317 57.0615V39.7618C149.366 38.651 148.509 37.7087 147.399 37.6521ZM124.844 42.7154C124.844 41.3172 125.977 40.1838 127.376 40.1838C128.774 40.1838 129.907 41.3172 129.907 42.7154C129.907 44.1136 128.774 45.2471 127.376 45.2471C125.978 45.2455 124.846 44.113 124.844 42.7154ZM128.22 62.1248H126.532V54.5299C126.532 54.297 126.721 54.1082 126.954 54.1079H127.798C128.03 54.1082 128.219 54.297 128.22 54.5299V62.1248ZM136.658 61.7028C136.658 61.9357 136.469 62.1245 136.236 62.1248H135.393C135.16 62.1245 134.971 61.9357 134.971 61.7028V60.0151H136.658V61.7028ZM137.424 62.1248C137.475 61.9897 137.501 61.8469 137.502 61.7029V60.0151H143.831V61.7029C143.833 61.847 143.859 61.9897 143.909 62.1248H137.424ZM146.363 61.7028C146.363 61.9358 146.174 62.1246 145.941 62.1248H145.097C144.864 62.1245 144.676 61.9358 144.675 61.7028V60.0151H146.363V61.7028V61.7028ZM147.516 59.1712H133.817L133.083 57.4834H148.251L147.516 59.1712ZM138.768 56.6395V55.7956C138.768 55.5627 138.957 55.374 139.19 55.3737H142.144C142.376 55.374 142.565 55.5627 142.566 55.7956V56.6395H138.768ZM148.473 39.7618V56.6395H143.409V55.7956C143.409 55.0969 142.842 54.5305 142.144 54.5298H139.19C138.491 54.5305 137.925 55.0969 137.924 55.7956V56.6395H132.861V39.7618C132.813 39.1174 133.291 38.5539 133.935 38.496H147.399C148.042 38.5539 148.52 39.1174 148.473 39.7618Z" fill="#69728C"/>
<path d="M146.363 39.3394H134.971C134.272 39.3401 133.706 39.9064 133.705 40.6052V41.0271C133.706 41.7259 134.272 42.2922 134.971 42.293H146.363C147.062 42.2922 147.628 41.7259 147.629 41.0271V40.6052C147.628 39.9064 147.062 39.3401 146.363 39.3394ZM146.785 41.0271C146.785 41.2601 146.596 41.4489 146.363 41.4491H134.971C134.738 41.4488 134.549 41.26 134.549 41.0271V40.6052C134.549 40.3723 134.738 40.1836 134.971 40.1833H146.363C146.596 40.1835 146.785 40.3723 146.785 40.6052V41.0271Z" fill="#69728C"/>
<path d="M135.393 52.4196C134.46 52.4196 133.705 53.1752 133.705 54.1074C133.706 55.039 134.461 55.7941 135.393 55.7951C136.325 55.7951 137.08 55.0395 137.08 54.1074C137.08 53.1752 136.325 52.4196 135.393 52.4196ZM135.393 54.9513C134.927 54.9513 134.549 54.5734 134.549 54.1074C134.549 53.6415 134.927 53.2639 135.393 53.2635C135.859 53.2635 136.237 53.6413 136.237 54.1074C136.237 54.5734 135.859 54.9513 135.393 54.9513Z" fill="#69728C"/>
<path d="M145.941 52.4196C145.009 52.4196 144.253 53.1752 144.253 54.1074C144.253 55.0395 145.009 55.7951 145.941 55.7951C146.873 55.7951 147.629 55.0395 147.629 54.1074C147.628 53.1756 146.873 52.4206 145.941 52.4196ZM145.941 54.9513C145.475 54.9513 145.097 54.5734 145.097 54.1074C145.097 53.6413 145.475 53.2635 145.941 53.2635C146.407 53.2635 146.785 53.6413 146.785 54.1074C146.784 54.5732 146.407 54.9507 145.941 54.9513Z" fill="#69728C"/>
<path d="M146.363 43.1369H134.971C134.272 43.1376 133.706 43.7039 133.705 44.4027V50.3099C133.706 51.0087 134.272 51.575 134.971 51.5758H146.363C147.062 51.575 147.628 51.0087 147.629 50.3099V44.4027C147.628 43.7039 147.062 43.1376 146.363 43.1369ZM146.785 50.3099C146.785 50.5428 146.596 50.7316 146.363 50.7318H134.971C134.738 50.7315 134.549 50.5428 134.549 50.3099V44.4027C134.549 44.1698 134.738 43.9811 134.971 43.9808H146.363C146.596 43.981 146.785 44.1698 146.785 44.4027V50.3099Z" fill="#69728C"/>
</g>
<rect x="131.252" y="36.4626" width="19.2549" height="26.0066" stroke="#6C4DCC"/>
<g clip-path="url(#clip3)">
<path d="M180.044 31.5099L179.566 31.0035L177.887 26.479C177.601 25.7147 176.87 25.2083 176.054 25.2037H164.065C163.25 25.2037 162.518 25.7147 162.232 26.479L160.577 30.9472L159.888 31.5849C159.288 32.096 158.941 32.8462 158.941 33.6338V40.2261C158.945 41.3045 159.822 42.1766 160.901 42.1766H162.138C163.217 42.1766 164.093 41.3045 164.098 40.2261V39.2696H175.726V40.2261C175.731 41.3045 176.607 42.1766 177.686 42.1766H178.924C180.002 42.1766 180.879 41.3045 180.884 40.2261V33.4604C180.879 32.7242 180.579 32.0209 180.044 31.5099ZM163.114 26.7978C163.264 26.3993 163.643 26.1414 164.065 26.1414H176.059C176.481 26.1414 176.861 26.404 177.011 26.7978L178.474 30.7363H177.381C177.123 28.978 175.487 27.7637 173.729 28.0262C172.327 28.2325 171.225 29.3344 171.019 30.7363H161.651L163.114 26.7978ZM176.425 30.7363H171.966C172.224 29.5031 173.433 28.7155 174.666 28.9733C175.548 29.1609 176.237 29.8501 176.425 30.7363ZM163.16 40.2261C163.156 40.7887 162.701 41.2388 162.138 41.2388H160.901C160.338 41.2388 159.883 40.7887 159.878 40.2261V38.9977C160.16 39.1805 160.53 39.2696 160.901 39.2696H163.16V40.2261ZM179.946 40.2261C179.941 40.7887 179.486 41.2388 178.924 41.2388H177.686C177.123 41.2388 176.668 40.784 176.664 40.2261V39.2696H178.924C179.294 39.2696 179.664 39.1805 179.946 38.9977V40.2261ZM178.924 38.3319H160.901C160.343 38.3366 159.883 37.8911 159.878 37.3285V33.6338C159.878 33.1181 160.108 32.6258 160.502 32.2929C160.507 32.2882 160.516 32.2788 160.521 32.2741L161.158 31.674H178.914L179.364 32.1569C179.369 32.1663 179.383 32.171 179.388 32.1804C179.74 32.5133 179.941 32.9774 179.941 33.4604V37.3285H179.946C179.941 37.8864 179.482 38.3366 178.924 38.3319Z" fill="#69728C"/>
<path d="M165.13 33.5494H161.613C161.355 33.5494 161.144 33.7604 161.144 34.0183V36.4564C161.144 36.7143 161.355 36.9253 161.613 36.9253H165.13C165.388 36.9253 165.599 36.7143 165.599 36.4564V34.0183C165.599 33.7604 165.388 33.5494 165.13 33.5494ZM164.661 35.9875H162.082V34.4872H164.661V35.9875Z" fill="#69728C"/>
<path d="M178.211 33.5494H174.695C174.437 33.5494 174.226 33.7604 174.226 34.0183V36.4564C174.226 36.7143 174.437 36.9253 174.695 36.9253H178.211C178.469 36.9253 178.68 36.7143 178.68 36.4564V34.0183C178.68 33.7604 178.469 33.5494 178.211 33.5494ZM177.742 35.9875H175.163V34.4872H177.742V35.9875Z" fill="#69728C"/>
<path d="M172.177 35.5187H167.647C167.39 35.5187 167.179 35.7297 167.179 35.9875C167.179 36.2454 167.39 36.4564 167.647 36.4564H172.177C172.435 36.4564 172.646 36.2454 172.646 35.9875C172.646 35.7297 172.435 35.5187 172.177 35.5187Z" fill="#69728C"/>
<path d="M172.177 34.0652H167.647C167.39 34.0652 167.179 34.2762 167.179 34.5341C167.179 34.7919 167.39 35.0029 167.647 35.0029H172.177C172.435 35.0029 172.646 34.7919 172.646 34.5341C172.646 34.2762 172.435 34.0652 172.177 34.0652Z" fill="#69728C"/>
</g>
<rect x="157.753" y="24.0626" width="24.3187" height="19.2549" stroke="#6C4DCC"/>
</g>
</g>
<defs>
<clipPath id="clip0">
<rect width="200" height="86" fill="white"/>
</clipPath>
<clipPath id="clip1">
<rect width="16.8791" height="16.8791" fill="white" transform="translate(171.433 46.0901)"/>
</clipPath>
<clipPath id="clip2">
<rect width="25.3187" height="25.3187" fill="white" transform="translate(124 37.6506)"/>
</clipPath>
<clipPath id="clip3">
<rect width="21.9429" height="21.9429" fill="white" transform="translate(158.941 22.7187)"/>
</clipPath>
</defs>
</svg>
