<svg width="200" height="86" viewBox="0 0 200 86" fill="none" xmlns="http://www.w3.org/2000/svg">
<g clip-path="url(#clip0)">
<rect width="200" height="86" fill="white"/>
<g opacity="0.8">
<rect x="132.007" y="-28.3051" width="107.32" height="124.355" transform="rotate(19.7726 132.007 -28.3051)" fill="#E6F5CE"/>
<g clip-path="url(#clip1)">
<path d="M184.293 49.8815C184.55 49.8815 184.758 49.6734 184.758 49.4167C184.758 49.16 184.55 48.9519 184.293 48.9519C184.036 48.9519 183.828 49.16 183.828 49.4167C183.828 49.6734 184.036 49.8815 184.293 49.8815Z" fill="#69728C"/>
<path d="M187.691 49.2618C186.974 49.2618 186.357 49.3123 185.762 48.7172L184.992 47.9471C184.643 47.5984 184.171 47.4025 183.678 47.4025H181.515H181.502C181.008 47.4025 180.535 47.5983 180.185 47.9471L180.173 47.9584L178.723 49.4091C178.42 49.7115 178.25 50.1217 178.25 50.5495V51.0364C178.25 51.9187 178.95 52.8288 179.823 52.9589C179.92 52.9733 180.016 52.9803 180.109 52.9803V53.1041C178.582 53.9843 175.448 55.7592 174.828 56.3751C174.306 56.8975 173.912 57.7233 173.912 58.558C173.912 58.9306 173.961 59.3096 174.177 59.8022L172.363 59.7975C171.849 59.7975 171.433 60.2138 171.433 60.7272C171.433 61.2405 171.849 61.6568 172.363 61.6568H180.1C180.561 61.6568 180.88 61.1624 180.657 60.7594C180.459 60.4006 180.146 60.1145 179.767 59.9502C179.98 59.5274 180.104 59.1775 180.638 59.1775H181.349V61.037C181.349 61.3793 181.626 61.6568 181.969 61.6568H184.274C184.75 61.6568 185.057 61.1384 184.817 60.7281C184.531 60.2393 184.027 59.894 183.438 59.8207L183.576 58.7181C184.321 58.2608 184.87 57.5009 185.021 56.6214C185.232 55.3906 184.708 54.279 183.828 53.6141V52.3605H185.687C186.369 52.3605 187.214 51.8822 187.564 51.2976C187.712 51.0513 188.314 50.1582 188.312 49.8793C188.31 49.5574 188.053 49.2618 187.691 49.2618ZM180.107 52.3539C179.349 52.3539 178.87 51.7121 178.87 51.0521V50.5496C178.87 50.292 178.968 50.0397 179.161 49.8473L180.612 48.3967C180.806 48.202 181.068 48.0725 181.349 48.0379V51.121C181.349 51.784 180.815 52.3539 180.107 52.3539ZM172.363 61.037C172.192 61.037 172.053 60.898 172.053 60.7272C172.053 60.5563 172.192 60.4173 172.361 60.4173C174.605 60.4231 174.049 60.4216 174.552 60.4229C174.781 60.7244 174.818 60.7753 175.17 61.037H172.363ZM187.033 50.9787C186.782 51.3978 186.176 51.7408 185.687 51.7408H184.107C183.703 51.7408 183.362 51.481 183.234 51.121H182.588C182.668 51.5102 182.897 51.8426 183.208 52.0664V53.9226C184.101 54.5974 184.607 55.3661 184.41 56.5165C184.253 57.4301 183.7 57.9144 182.998 58.3457C182.849 59.5368 182.804 59.897 182.746 60.3591C183.371 60.4369 183.934 60.4381 184.274 61.0371C182.979 61.0371 183.262 61.0371 181.969 61.0371C181.969 59.5513 181.969 59.4315 181.969 57.9383H181.349V58.5578C181.185 58.5578 181.054 58.5578 180.638 58.5578C180.447 58.5578 180.268 58.6085 180.099 58.68C180.129 57.8378 179.825 56.99 179.202 56.3668L178.763 56.805C179.682 57.7244 179.626 59.0692 179.102 59.8896L178.917 60.2569C179.399 60.4659 179.861 60.5965 180.1 61.0371H177.009C175.636 61.0358 174.551 59.9298 174.535 58.5915C174.522 57.85 174.858 57.083 175.539 56.5758C176.221 56.0678 179.992 53.8869 180.729 53.4622C180.729 53.2937 180.73 53.0267 180.729 52.8666C181.449 52.6105 181.969 51.9295 181.969 51.121V48.0223H183.678C184.007 48.0223 184.322 48.1529 184.554 48.3853L185.324 49.1554C185.765 49.5967 186.346 49.8428 186.965 49.8706C187.031 50.0959 187.183 50.2818 187.385 50.3919L187.033 50.9787Z" fill="#69728C"/>
</g>
<path d="M178.5 47.5C179.5 45.5 187.5 47.5 188.5 47.5C189.167 47.8333 189.5 51 188.5 52.5C184.5 52.5 185 54 186 56C185.667 56.8333 185.1 58.6 185.5 61C186.5 63 182.5 62.5 180.5 62.5C178.5 62.5 171 62.5 170 61.5C169.5 61 171.5 59 174 56C175.5 53 177.5 54 177.5 53.5C177.5 53 177.5 49.5 178.5 47.5Z" fill="#6C4DCC" fill-opacity="0.4" stroke="#5137AD"/>
<g clip-path="url(#clip2)">
<path d="M153.792 51.7912L153.313 51.2848L151.635 46.7603C151.349 45.996 150.617 45.4897 149.801 45.485H137.813C136.997 45.485 136.265 45.996 135.979 46.7603L134.324 51.2286L133.635 51.8662C133.035 52.3773 132.688 53.1275 132.688 53.9152V60.5074C132.693 61.5858 133.569 62.4579 134.648 62.4579H135.886C136.964 62.4579 137.841 61.5858 137.845 60.5074V59.5509H149.473V60.5074C149.478 61.5858 150.355 62.4579 151.433 62.4579H152.671C153.749 62.4579 154.626 61.5858 154.631 60.5074V53.7417C154.626 53.0056 154.326 52.3023 153.792 51.7912ZM136.861 47.0791C137.011 46.6806 137.391 46.4227 137.813 46.4227H149.806C150.228 46.4227 150.608 46.6853 150.758 47.0791L152.221 51.0176H151.128C150.87 49.2593 149.234 48.045 147.476 48.3075C146.074 48.5139 144.972 49.6157 144.766 51.0176H135.398L136.861 47.0791ZM150.172 51.0176H145.713C145.971 49.7845 147.181 48.9968 148.414 49.2547C149.295 49.4422 149.984 50.1314 150.172 51.0176ZM136.908 60.5074C136.903 61.07 136.448 61.5202 135.886 61.5202H134.648C134.085 61.5202 133.63 61.07 133.626 60.5074V59.279C133.907 59.4618 134.277 59.5509 134.648 59.5509H136.908V60.5074ZM153.693 60.5074C153.688 61.07 153.234 61.5202 152.671 61.5202H151.433C150.87 61.5202 150.416 61.0654 150.411 60.5074V59.5509H152.671C153.041 59.5509 153.412 59.4618 153.693 59.279V60.5074ZM152.671 58.6132H134.648C134.09 58.6179 133.63 58.1725 133.626 57.6098V53.9152C133.626 53.3994 133.855 52.9071 134.249 52.5742C134.254 52.5695 134.263 52.5602 134.268 52.5555L134.906 51.9553H152.662L153.112 52.4382C153.116 52.4476 153.13 52.4523 153.135 52.4617C153.487 52.7946 153.688 53.2588 153.688 53.7417V57.6098H153.693C153.688 58.1678 153.229 58.6179 152.671 58.6132Z" fill="#69728C"/>
<path d="M138.877 53.8308H135.36C135.103 53.8308 134.892 54.0418 134.892 54.2996V56.7377C134.892 56.9956 135.103 57.2066 135.36 57.2066H138.877C139.135 57.2066 139.346 56.9956 139.346 56.7377V54.2996C139.346 54.0418 139.135 53.8308 138.877 53.8308ZM138.408 56.2689H135.829V54.7685H138.408V56.2689Z" fill="#69728C"/>
<path d="M151.958 53.8308H148.442C148.184 53.8308 147.973 54.0418 147.973 54.2996V56.7377C147.973 56.9956 148.184 57.2066 148.442 57.2066H151.958C152.216 57.2066 152.427 56.9956 152.427 56.7377V54.2996C152.427 54.0418 152.216 53.8308 151.958 53.8308ZM151.489 56.2689H148.911V54.7685H151.489V56.2689Z" fill="#69728C"/>
<path d="M145.924 55.8H141.395C141.137 55.8 140.926 56.011 140.926 56.2689C140.926 56.5267 141.137 56.7377 141.395 56.7377H145.924C146.182 56.7377 146.393 56.5267 146.393 56.2689C146.393 56.011 146.182 55.8 145.924 55.8Z" fill="#69728C"/>
<path d="M145.924 54.3465H141.395C141.137 54.3465 140.926 54.5575 140.926 54.8154C140.926 55.0733 141.137 55.2843 141.395 55.2843H145.924C146.182 55.2843 146.393 55.0733 146.393 54.8154C146.393 54.5575 146.182 54.3465 145.924 54.3465Z" fill="#69728C"/>
</g>
<path d="M141.5 44H147.5H151.5C152.5 44 153.7 49 154.5 51C155.5 53.5 155.5 53 155.5 60C155.5 64 153 63.5 150.5 63.5C149 63.5 145.5 61 143 61C141 60.8333 137.5 63.5 133.5 63.5C131 61 131 55 132 52.5C132 52.5 132.7 52.4 133.5 48C134.5 42.5 139 44 141.5 44Z" fill="#75AA7D" fill-opacity="0.4" stroke="#41854C"/>
</g>
</g>
<defs>
<clipPath id="clip0">
<rect width="200" height="86" fill="white"/>
</clipPath>
<clipPath id="clip1">
<rect width="16.8791" height="16.8791" fill="white" transform="translate(171.433 46.0901)"/>
</clipPath>
<clipPath id="clip2">
<rect width="21.9429" height="21.9429" fill="white" transform="translate(132.688 43)"/>
</clipPath>
</defs>
</svg>
