<svg width="200" height="86" viewBox="0 0 200 86" fill="none" xmlns="http://www.w3.org/2000/svg">
<g clip-path="url(#clip0)">
<rect width="200" height="86" fill="white"/>
<g opacity="0.8">
<rect x="132.007" y="-28.3051" width="107.32" height="124.355" transform="rotate(19.7726 132.007 -28.3051)" fill="#E4CEF5"/>
</g>
<path d="M179.739 37.7396C179.052 36.0093 177.092 35.1638 175.362 35.851C175.273 35.8863 175.185 35.9254 175.1 35.9682L172.6 37.2199L167.497 30.4167C167.434 30.3326 167.357 30.2598 167.27 30.2014L161.702 26.4899C161.59 26.4153 161.464 26.3659 161.331 26.3452L149.269 24.4894C148.977 24.4445 148.682 24.541 148.473 24.7492L141.555 31.6406C140.393 32.798 140.39 34.678 141.547 35.8397C141.55 35.8424 141.553 35.845 141.555 35.8476C142.663 36.9482 144.433 37.0065 145.611 35.9812L151.216 31.0764L156.19 32.498L152.027 41.6441L145.642 50.7661L138.052 57.5962C136.669 58.7835 136.511 60.8667 137.698 62.249C138.886 63.6314 140.969 63.7894 142.351 62.6021L150.713 55.7543L155.712 50.7559L162.051 55.5112L160.641 65.3542C160.509 66.2747 160.783 67.2072 161.392 67.9096C162.018 68.6256 162.927 69.0303 163.878 69.0165C165.454 69.0187 166.808 67.8994 167.102 66.3517L169.527 53.4133C169.587 53.091 169.473 52.7609 169.226 52.5448L162.277 46.469L165.235 38.3353L170.696 44.5771C170.963 44.8821 171.398 44.9784 171.769 44.8146L178.034 42.044C179.681 41.3143 180.44 39.3994 179.739 37.7396ZM177.283 40.345L171.643 42.8392L165.597 35.9293C165.259 35.5437 164.673 35.505 164.287 35.8426C164.17 35.9456 164.08 36.0766 164.027 36.2234L160.315 46.4301C160.184 46.7899 160.288 47.193 160.576 47.4452L167.601 53.5924L165.27 66.0102C165.131 66.6971 164.516 67.1833 163.816 67.1608C163.069 67.1606 162.463 66.5548 162.463 65.8076C162.463 65.7438 162.468 65.68 162.477 65.6168L163.962 55.2301C164.01 54.8946 163.871 54.5594 163.6 54.356L156.177 48.7888C155.807 48.5118 155.29 48.5485 154.964 48.875L149.465 54.3802L141.172 61.1657C140.559 61.6739 139.65 61.5886 139.142 60.9754C138.646 60.3773 138.713 59.4939 139.294 58.9778L146.962 52.0762C147.014 52.0293 147.061 51.9764 147.101 51.9185L153.596 42.6397C153.629 42.5933 153.657 42.5439 153.681 42.4922L158.32 32.2855C158.532 31.8189 158.326 31.2689 157.859 31.0568C157.818 31.0379 157.775 31.0222 157.731 31.0096L151.236 29.1539C150.933 29.0661 150.606 29.1391 150.369 29.3478L144.384 34.5848C143.934 35.0052 143.229 34.9813 142.808 34.5314C142.388 34.0815 142.412 33.3758 142.862 32.9554L149.45 26.3944L160.845 28.148L166.105 31.6573L171.58 38.9532C171.848 39.3121 172.335 39.4272 172.737 39.2269L175.929 37.6263C176.305 37.4373 176.743 37.4148 177.136 37.5642C177.556 37.7284 177.885 38.0669 178.037 38.4921C178.325 39.2119 177.992 40.0311 177.283 40.345Z" fill="#69728C"/>
<path d="M171.394 17.9831H167.219C164.4 17.9831 162.115 20.2679 162.115 23.0865C162.115 25.905 164.4 28.1898 167.219 28.1898C170.037 28.1898 172.322 25.905 172.322 23.0865V18.911C172.322 18.3986 171.906 17.9831 171.394 17.9831ZM170.466 23.0865C170.473 24.8729 169.031 26.3267 167.244 26.3337C166.243 26.3376 165.296 25.8772 164.68 25.087C166.224 23.5601 168.295 22.6823 170.466 22.6337V23.0865ZM170.466 20.7779C168.09 20.8212 165.8 21.682 163.984 23.2154C163.984 23.1718 163.971 23.131 163.971 23.0865C163.971 21.2929 165.425 19.8389 167.219 19.8389H170.466V20.7779Z" fill="#69728C"/>
<line x1="139.709" y1="59.3431" x2="148.459" y2="53.0931" stroke="#5137AD"/>
<line x1="148.396" y1="53.1464" x2="155.896" y2="45.6464" stroke="#5137AD"/>
<line x1="156.604" y1="45.6464" x2="165.354" y2="54.3964" stroke="#5137AD"/>
<line x1="165.497" y1="54.8052" x2="164.247" y2="66.0552" stroke="#5137AD"/>
<line x1="155.795" y1="45.7931" x2="162.045" y2="32.0431" stroke="#5137AD"/>
<line x1="162.066" y1="32.0019" x2="167.066" y2="23.2519" stroke="#5137AD"/>
<line x1="162.146" y1="32.6036" x2="158.396" y2="28.8536" stroke="#5137AD"/>
<line x1="161.371" y1="31.7649" x2="166.371" y2="33.0149" stroke="#5137AD"/>
<line x1="166.666" y1="33.2226" x2="171.666" y2="40.7226" stroke="#5137AD"/>
<line x1="171.064" y1="40.5358" x2="177.314" y2="38.0358" stroke="#5137AD"/>
<line x1="158.679" y1="28.995" x2="149.929" y2="27.745" stroke="#5137AD"/>
<line x1="150.354" y1="27.6036" x2="144.104" y2="33.8536" stroke="#5137AD"/>
<g opacity="0.9">
<circle cx="140" cy="59" r="2" fill="#6C4DCC"/>
<circle cx="149" cy="52" r="2" fill="#6C4DCC"/>
<circle cx="166" cy="55" r="2" fill="#6C4DCC"/>
<circle cx="164" cy="66" r="2" fill="#6C4DCC"/>
<circle cx="156" cy="45" r="2" fill="#6C4DCC"/>
<circle cx="162" cy="32" r="2" fill="#6C4DCC"/>
<circle cx="158" cy="29" r="2" fill="#6C4DCC"/>
<circle cx="167" cy="33" r="2" fill="#6C4DCC"/>
<path d="M151.5 27.5C151.5 28.6046 150.605 29.5 149.5 29.5C148.395 29.5 147.5 28.6046 147.5 27.5C147.5 26.3954 148.395 25.5 149.5 25.5C150.605 25.5 151.5 26.3954 151.5 27.5Z" fill="#6C4DCC"/>
<circle cx="144" cy="33" r="2" fill="#6C4DCC"/>
<circle cx="171" cy="40" r="2" fill="#6C4DCC"/>
<circle cx="177" cy="38" r="2" fill="#6C4DCC"/>
<circle cx="167" cy="23" r="2" fill="#6C4DCC"/>
</g>
</g>
<defs>
<clipPath id="clip0">
<rect width="200" height="86" fill="white"/>
</clipPath>
</defs>
</svg>
