<svg width="200" height="86" viewBox="0 0 200 86" fill="none" xmlns="http://www.w3.org/2000/svg">
<g clip-path="url(#clip0)">
<rect width="200" height="86" fill="white"/>
<g opacity="0.8">
<rect x="132.007" y="-28.3051" width="107.32" height="124.355" transform="rotate(19.7726 132.007 -28.3051)" fill="#F5CECE"/>
<path d="M117.5 35.5L147 25M147 61L117.5 51.5" stroke="#6C4DCC" stroke-dasharray="2.5 2.5"/>
<path d="M136.5 35.5L192.5 24.5M192.5 61.5L136.5 51.5" stroke="#6C4DCC" stroke-dasharray="2.5 2.5"/>
<g clip-path="url(#clip1)">
<path d="M131.548 38.7914C131.804 38.7914 132.013 38.5833 132.013 38.3266C132.013 38.0699 131.804 37.8618 131.548 37.8618C131.291 37.8618 131.083 38.0699 131.083 38.3266C131.083 38.5833 131.291 38.7914 131.548 38.7914Z" fill="#69728C"/>
<path d="M134.946 38.1717C134.229 38.1717 133.612 38.2222 133.017 37.6271L132.247 36.857C131.898 36.5083 131.426 36.3124 130.932 36.3124H128.77H128.757C128.263 36.3124 127.79 36.5082 127.44 36.857L127.428 36.8683L125.978 38.319C125.675 38.6214 125.505 39.0316 125.505 39.4594V39.9463C125.505 40.8286 126.205 41.7387 127.078 41.8688C127.175 41.8832 127.27 41.8902 127.364 41.8902V42.014C125.837 42.8942 122.703 44.6691 122.083 45.285C121.561 45.8074 121.167 46.6332 121.167 47.4679C121.167 47.8405 121.216 48.2195 121.432 48.7121L119.618 48.7074C119.104 48.7074 118.688 49.1237 118.688 49.6371C118.688 50.1504 119.104 50.5667 119.618 50.5667H127.355C127.816 50.5667 128.135 50.0723 127.912 49.6693C127.714 49.3105 127.401 49.0244 127.022 48.8601C127.235 48.4373 127.359 48.0874 127.893 48.0874H128.604V49.9469C128.604 50.2892 128.881 50.5667 129.224 50.5667H131.529C132.005 50.5667 132.312 50.0483 132.072 49.638C131.786 49.1492 131.282 48.8039 130.693 48.7306L130.83 47.6279C131.576 47.1707 132.124 46.4108 132.275 45.5313C132.487 44.3005 131.963 43.1889 131.083 42.524V41.2704H132.942C133.624 41.2704 134.469 40.7921 134.819 40.2075C134.967 39.9612 135.569 39.0681 135.567 38.7892C135.565 38.4673 135.308 38.1717 134.946 38.1717ZM127.362 41.2638C126.604 41.2638 126.125 40.6219 126.125 39.962V39.4595C126.125 39.2019 126.223 38.9496 126.416 38.7572L127.866 37.3066C128.061 37.1119 128.323 36.9823 128.604 36.9478V40.0309C128.604 40.6939 128.07 41.2638 127.362 41.2638ZM119.618 49.9469C119.447 49.9469 119.308 49.8079 119.308 49.6371C119.308 49.4662 119.447 49.3272 119.616 49.3272C121.86 49.333 121.304 49.3315 121.806 49.3328C122.036 49.6343 122.073 49.6852 122.425 49.9469H119.618ZM134.288 39.8886C134.037 40.3077 133.431 40.6507 132.942 40.6507H131.361C130.958 40.6507 130.617 40.3909 130.489 40.0309H129.843C129.923 40.4201 130.151 40.7525 130.463 40.9763V42.8325C131.356 43.5073 131.862 44.276 131.665 45.4264C131.508 46.34 130.955 46.8242 130.253 47.2556C130.104 48.4467 130.059 48.8069 130.001 49.269C130.626 49.3468 131.189 49.348 131.529 49.947C130.233 49.947 130.517 49.947 129.224 49.947C129.224 48.4612 129.224 48.3414 129.224 46.8482H128.604V47.4677C128.44 47.4677 128.309 47.4677 127.893 47.4677C127.702 47.4677 127.523 47.5184 127.354 47.5899C127.384 46.7477 127.08 45.8999 126.457 45.2767L126.018 45.7149C126.937 46.6343 126.881 47.9791 126.357 48.7995L126.172 49.1668C126.654 49.3758 127.116 49.5064 127.355 49.947H124.264C122.891 49.9457 121.806 48.8397 121.79 47.5014C121.777 46.7599 122.113 45.9929 122.794 45.4857C123.476 44.9777 127.247 42.7968 127.984 42.3721C127.984 42.2036 127.984 41.9366 127.984 41.7765C128.704 41.5204 129.224 40.8394 129.224 40.0309V36.9322H130.933C131.261 36.9322 131.577 37.0628 131.809 37.2952L132.579 38.0653C133.02 38.5066 133.601 38.7527 134.22 38.7805C134.286 39.0058 134.438 39.1917 134.64 39.3018L134.288 39.8886Z" fill="#69728C"/>
</g>
<rect x="117.5" y="35.5" width="19.2549" height="15.8791" stroke="#6C4DCC"/>
<rect x="148" y="25" width="44" height="37" fill="#F5CECE" fill-opacity="0.6"/>
<g clip-path="url(#clip2)">
<path d="M180.039 32.6106C180.622 32.6106 181.094 32.1379 181.094 31.5549C181.094 30.9719 180.622 30.4993 180.039 30.4993C179.456 30.4993 178.983 30.9719 178.983 31.5549C178.983 32.1379 179.456 32.6106 180.039 32.6106Z" fill="#69728C"/>
<path d="M187.757 31.2031C186.127 31.2031 184.728 31.3178 183.376 29.9663L181.627 28.2174C180.835 27.4255 179.761 26.9806 178.641 26.9806H173.731H173.701C172.58 26.9806 171.504 27.4252 170.709 28.2173L170.683 28.243L167.388 31.5375C166.702 32.2244 166.316 33.156 166.316 34.1275V35.2332C166.316 37.237 167.906 39.3038 169.888 39.5994C170.108 39.6321 170.325 39.648 170.538 39.648V39.9291C167.07 41.9281 159.953 45.9591 158.544 47.3577C157.358 48.5441 156.463 50.4196 156.463 52.3153C156.463 53.1615 156.574 54.0221 157.066 55.1409L152.945 55.1303C151.779 55.1303 150.833 56.0756 150.833 57.2415C150.833 58.4074 151.779 59.3527 152.945 59.3527H170.517C171.563 59.3527 172.288 58.2299 171.782 57.3147C171.332 56.4999 170.621 55.85 169.761 55.4771C170.245 54.5168 170.525 53.7221 171.738 53.7221H173.353V57.9452C173.353 58.7225 173.983 59.3527 174.761 59.3527H179.997C181.076 59.3527 181.774 58.1755 181.229 57.2435C180.58 56.1335 179.435 55.3494 178.097 55.1828L178.41 52.6787C180.102 51.6402 181.348 49.9146 181.691 47.917C182.171 45.1218 180.981 42.5974 178.983 41.0874V38.2404H183.205C184.754 38.2404 186.672 37.1541 187.469 35.8264C187.805 35.2671 189.17 33.2388 189.167 32.6055C189.163 31.8744 188.578 31.2031 187.757 31.2031ZM170.532 38.2254C168.811 38.2254 167.723 36.7677 167.723 35.269V34.1278C167.723 33.5427 167.947 32.9698 168.384 32.5329L171.678 29.2384C172.121 28.7963 172.714 28.502 173.353 28.4236V35.4255C173.353 36.9311 172.141 38.2254 170.532 38.2254ZM152.945 57.9452C152.557 57.9452 152.241 57.6295 152.241 57.2415C152.241 56.8535 152.557 56.5378 152.941 56.5378C158.038 56.551 156.774 56.5476 157.916 56.5506C158.437 57.2352 158.522 57.3509 159.32 57.9452H152.945ZM186.262 35.1023C185.691 36.0541 184.315 36.833 183.205 36.833H179.616C178.7 36.833 177.926 36.2429 177.634 35.4255H176.168C176.348 36.3093 176.868 37.0642 177.576 37.5725V41.788C179.603 43.3205 180.753 45.0662 180.304 47.679C179.948 49.7537 178.693 50.8535 177.097 51.833C176.759 54.5381 176.657 55.3561 176.525 56.4056C177.945 56.5824 179.224 56.5851 179.997 57.9453C177.054 57.9453 177.697 57.9453 174.761 57.9453C174.761 54.5711 174.761 54.2991 174.761 50.9079H173.353V52.3147C172.98 52.3147 172.684 52.3147 171.738 52.3147C171.304 52.3147 170.899 52.4299 170.514 52.5922C170.584 50.6796 169.891 48.7542 168.476 47.339L167.481 48.3342C169.568 50.422 169.44 53.4761 168.251 55.3393L167.829 56.1735C168.924 56.6483 169.973 56.9447 170.517 57.9453H163.497C160.378 57.9425 157.915 55.4307 157.878 52.3912C157.848 50.7074 158.612 48.9655 160.159 47.8137C161.708 46.6598 170.272 41.7069 171.946 40.7425C171.946 40.3597 171.946 39.7534 171.945 39.3897C173.581 38.8082 174.761 37.2617 174.761 35.4255V28.3881H178.642C179.388 28.3881 180.104 28.6846 180.632 29.2125L182.381 30.9614C183.383 31.9637 184.701 32.5227 186.108 32.5857C186.256 33.0974 186.603 33.5195 187.062 33.7696L186.262 35.1023Z" fill="#69728C"/>
</g>
<rect x="147.5" y="24.5" width="45" height="37.3333" stroke="#6C4DCC"/>
</g>
</g>
<defs>
<clipPath id="clip0">
<rect width="200" height="86" fill="white"/>
</clipPath>
<clipPath id="clip1">
<rect width="16.8791" height="16.8791" fill="white" transform="translate(118.688 35)"/>
</clipPath>
<clipPath id="clip2">
<rect width="38.3333" height="38.3333" fill="white" transform="translate(150.833 24)"/>
</clipPath>
</defs>
</svg>
